<svg width="225" height="52" xmlns="http://www.w3.org/2000/svg">

 <g>
  <title>background</title>
  <rect fill="none" id="canvas_background" height="54" width="227" y="-1" x="-1"/>
 </g>
 <g>
  <title>Layer 1</title>
  <path stroke="null" id="svg_1" d="m57.57146,30.13178l2.93891,0q0.35376,0 0.54424,0.18056q0.19048,0.18056 0.35376,0.46944q0.19048,0.65 0.61266,1.22778q0.4214,0.57778 1.14291,0.93889q0.72073,0.36111 1.80922,0.36111q1.76879,0 2.65357,-0.75833q0.884,-0.75833 0.884,-2.05833q0,-0.90278 -0.47582,-1.48056q-0.4766,-0.57778 -1.49667,-1.04722q-1.02084,-0.46944 -2.70799,-0.975q-2.04091,-0.61389 -3.46915,-1.53524q-1.42902,-0.92032 -2.14976,-2.38333q-0.72151,-1.46198 -0.72151,-3.62865q0,-2.16667 0.898,-3.84635q0.898,-1.67865 2.53072,-2.63611q1.63273,-0.95643 3.89133,-0.95643q1.82321,0 3.22502,0.65q1.40103,0.65 2.34024,1.69722q0.93843,1.04722 1.42825,2.23889q0.48982,1.19167 0.51703,2.31111q0,0.325 -0.14928,0.55921q-0.15006,0.23524 -0.42218,0.23524l-3.04775,0q-0.27212,0 -0.48982,-0.14444q-0.2177,-0.14444 -0.38097,-0.50556q-0.13606,-0.975 -0.93843,-1.66111q-0.80315,-0.68611 -2.08211,-0.68611q-1.33339,0 -2.10855,0.63143q-0.77593,0.63246 -0.77593,1.96857q0,0.86667 0.40818,1.46198q0.40818,0.59635 1.33339,1.04722q0.92521,0.4519 2.50351,0.95746q2.36745,0.65 3.86412,1.57032q1.49667,0.92135 2.20418,2.34722q0.70751,1.4269 0.70751,3.59357q0,2.41944 -1.00685,4.15278q-1.00685,1.73333 -2.80285,2.65365q-1.796,0.92135 -4.16345,0.92135q-2.61236,0 -4.36715,-1.01111q-1.75557,-1.01111 -2.65357,-2.63611q-0.898,-1.625 -0.95242,-3.46667q0,-0.325 0.16327,-0.54167q0.16327,-0.21667 0.40818,-0.21667zm21.6064,7.51111l-2.93891,0q-0.29933,0 -0.48982,-0.25278q-0.19048,-0.25278 -0.19048,-0.65l0,-23.83333q0,-0.39722 0.19048,-0.65q0.19048,-0.25278 0.48982,-0.25278l2.93891,0q0.29933,0 0.48982,0.25278q0.19048,0.25278 0.19048,0.65l0,8.125q0.70751,-1.15556 1.78278,-1.84167q1.07449,-0.68611 2.57115,-0.68611q1.60551,0 2.84405,0.95643q1.23776,0.95746 1.93206,2.78056q0.69352,1.82413 0.69352,4.42413l0,10.075q0,0.39722 -0.19048,0.65q-0.19048,0.25278 -0.48982,0.25278l-2.96612,0q-0.27212,0 -0.46261,-0.25278q-0.19048,-0.25278 -0.19048,-0.65l0,-9.85833q0,-1.91389 -0.70751,-2.97968q-0.70751,-1.06476 -2.0137,-1.06476q-1.27897,0 -2.04091,1.06476q-0.76194,1.06579 -0.76194,2.97968l0,9.85833q0,0.39722 -0.19048,0.65q-0.19048,0.25278 -0.48982,0.25278zm73.14611,-5.2l2.63957,0q0.10885,0 0.17727,0.03611q0.06764,0.03611 0.17649,0.18056q0.35376,0.325 0.72151,0.73976q0.36697,0.41579 0.884,0.70468q0.51703,0.28889 1.25176,0.28889q0.898,0 1.51066,-0.48802q0.61188,-0.48698 0.61188,-1.38976q0,-0.65 -0.27212,-1.08333q-0.27212,-0.43333 -1.06127,-0.79444q-0.78915,-0.36111 -2.34024,-0.79444q-1.46945,-0.43333 -2.50351,-1.15556q-1.03406,-0.72222 -1.55109,-1.82413q-0.51703,-1.10087 -0.51703,-2.65365q0,-1.40833 0.66709,-2.70833q0.66631,-1.3 1.97249,-2.14913q1.30618,-0.8481 3.26545,-0.8481q1.49667,0 2.62636,0.48698q1.12891,0.48802 1.89085,1.22778q0.76194,0.74079 1.1569,1.51667q0.39419,0.7769 0.4214,1.35468a0.80781,1.07198 0 0 1 0.00389,0.09698a0.56523,0.75008 0 0 1 -0.16716,0.55302q-0.19048,0.25278 -0.43539,0.25278l-2.42188,0q-0.13606,0 -0.24491,-0.07222q-0.10885,-0.07222 -0.19048,-0.18056q-0.32655,-0.25278 -0.66631,-0.65q-0.34054,-0.39722 -0.80315,-0.68611q-0.46261,-0.28889 -1.19733,-0.28889q-0.87079,0 -1.34661,0.5231q-0.4766,0.52413 -0.4766,1.31857a1.15535,1.53317 0 0 0 0.24491,0.93889q0.24491,0.43333 0.99363,0.79444q0.74794,0.36111 2.32625,0.75833q1.85042,0.43333 2.93891,1.3q1.08848,0.86667 1.55109,2.00365q0.46261,1.13802 0.46261,2.43802q0,1.69722 -0.74794,3.01476q-0.74872,1.31857 -2.21817,2.05833q-1.46945,0.74079 -3.592,0.74079q-1.68715,0 -2.8977,-0.52413q-1.21133,-0.5231 -1.95927,-1.28143q-0.74872,-0.75833 -1.1157,-1.53524q-0.36775,-0.77587 -0.39496,-1.31754a0.71995,0.9554 0 0 1 -0.00311,-0.08667a0.54035,0.71706 0 0 1 0.19359,-0.56333q0.2177,-0.25278 0.43539,-0.25278zm-26.42294,12.06111l-2.55794,0q-0.2177,0 -0.39419,-0.21667q-0.17727,-0.21667 -0.17727,-0.54167q0,-0.07222 0.02721,-0.19913q0.02721,-0.12587 0.08164,-0.30643l2.12254,-6.75278l-5.22472,-16.35833q-0.08164,-0.28889 -0.08164,-0.46944a0.72384,0.96056 0 0 1 0.19048,-0.56024q0.16327,-0.23421 0.40818,-0.23421l2.66679,0q0.32655,0 0.48982,0.23421a1.29918,1.72405 0 0 1 0.24491,0.48802l3.3743,11.15833l3.45594,-11.15833q0.10885,-0.28889 0.27212,-0.50556q0.16327,-0.21667 0.51703,-0.21667l2.58515,0q0.24491,0 0.42218,0.23421q0.17649,0.23524 0.17649,0.52413q0,0.18056 -0.08164,0.50556l-7.70102,23.65278q-0.10885,0.28889 -0.28534,0.50556q-0.17727,0.21667 -0.53102,0.21667zm15.56532,-18.12778l3.56478,-0.68611l0,-0.65q0,-1.40833 -0.48982,-2.16667q-0.48982,-0.75833 -1.71436,-0.75833q-0.73473,0 -1.19733,0.325q-0.46261,0.325 -0.78915,0.73976q-0.32655,0.41579 -0.62588,0.74079q-0.08164,0.21667 -0.16327,0.28889q-0.08164,0.07222 -0.2177,0.07222l-2.50351,0q-0.27212,0 -0.44861,-0.23524a0.4906,0.65103 0 0 1 -0.15317,-0.4746a0.58001,0.76968 0 0 1 0.00311,-0.0846q0,-0.61389 0.35376,-1.44444q0.35376,-0.83056 1.08848,-1.64357q0.73473,-0.81198 1.89163,-1.35365q1.15613,-0.54167 2.78885,-0.54167q1.71436,0 2.93891,0.54167q1.22454,0.54167 1.97327,1.51667q0.74794,0.975 1.08848,2.25643q0.33976,1.28246 0.33976,2.76302l0,11.15833q0,0.39722 -0.19048,0.65q-0.19048,0.25278 -0.46261,0.25278l-2.694,0q-0.27212,0 -0.46261,-0.25278q-0.19048,-0.25278 -0.19048,-0.65l0,-1.33611q-0.35376,0.68611 -0.95242,1.28143q-0.59867,0.59635 -1.42825,0.95746q-0.83036,0.36111 -1.94605,0.36111q-1.44224,0 -2.58515,-0.74079q-1.14291,-0.73976 -1.82321,-2.00365q-0.6803,-1.26389 -0.6803,-2.81667q0,-2.56389 1.56508,-4.04444q1.56431,-1.48056 4.12224,-2.02222zm42.64135,-5.63333l0,-7.83611q0,-0.39722 0.19048,-0.65q0.19048,-0.25278 0.48982,-0.25278l2.80285,0q0.29933,0 0.48982,0.25278q0.19048,0.25278 0.19048,0.65l0,23.83333q0,0.39722 -0.19048,0.65q-0.19048,0.25278 -0.48982,0.25278l-2.61236,0q-0.27212,0 -0.46261,-0.25278q-0.19048,-0.25278 -0.19048,-0.65l0,-1.22778q-0.6803,1.08333 -1.71436,1.78698q-1.03406,0.70468 -2.58515,0.70468q-1.3606,0 -2.42188,-0.59635q-1.06127,-0.59532 -1.796,-1.73333q-0.73473,-1.13698 -1.1157,-2.70833q-0.38097,-1.57032 -0.46261,-3.48421q-0.02721,-0.68611 -0.02721,-1.24635q0,-0.55921 0.02721,-1.20921q0.05442,-1.87778 0.44939,-3.43056q0.39419,-1.55278 1.1157,-2.69079q0.72073,-1.13698 1.796,-1.76944q1.07449,-0.63143 2.43509,-0.63143q1.41503,0 2.42188,0.63143q1.00685,0.63246 1.65994,1.60746zm-66.09818,7.33056l0,0.83056q0,0.36111 -0.19048,0.63143q-0.19048,0.27135 -0.48982,0.27135l-8.87114,0l0,0.08976l0,0.16302q0.02721,1.15556 0.32655,2.11198q0.29933,0.95746 0.88478,1.53524q0.58467,0.57778 1.42825,0.57778q0.65309,0 1.08848,-0.27135q0.43539,-0.27032 0.72151,-0.61389q0.28534,-0.34254 0.4214,-0.59532q0.24491,-0.39722 0.39496,-0.48802q0.14928,-0.08976 0.44861,-0.08976l2.88448,0q0.24491,0 0.42218,0.21667a0.45094,0.59841 0 0 1 0.15317,0.45706a0.57845,0.76762 0 0 1 -0.00389,0.0846q-0.02721,0.61389 -0.44861,1.46198q-0.42218,0.84913 -1.23854,1.66111q-0.81636,0.81302 -2.02691,1.35468q-1.21133,0.54167 -2.78963,0.54167q-3.12939,0 -4.96582,-2.31111q-1.83721,-2.31111 -1.94605,-6.71667l0,-0.7769l0,-0.73976q0.10885,-2.81667 0.95242,-4.82135q0.84357,-2.00365 2.36745,-3.06944q1.52388,-1.06476 3.56478,-1.06476q2.31303,0 3.83691,1.24532q1.52388,1.24635 2.29981,3.39444q0.77516,2.14913 0.77516,4.92968zm86.88822,0l0,0.83056q0,0.36111 -0.19048,0.63143q-0.19048,0.27135 -0.48982,0.27135l-8.87114,0l0,0.08976l0,0.16302q0.02721,1.15556 0.32655,2.11198q0.29933,0.95746 0.88478,1.53524q0.58467,0.57778 1.42825,0.57778q0.65309,0 1.08848,-0.27135q0.43539,-0.27032 0.72151,-0.61389q0.28534,-0.34254 0.4214,-0.59532q0.24491,-0.39722 0.39496,-0.48802q0.14928,-0.08976 0.44861,-0.08976l2.88448,0q0.24491,0 0.42218,0.21667a0.45094,0.59841 0 0 1 0.15317,0.45706a0.57845,0.76762 0 0 1 -0.00389,0.0846q-0.02721,0.61389 -0.44861,1.46198q-0.42218,0.84913 -1.23854,1.66111q-0.81636,0.81302 -2.02691,1.35468q-1.21133,0.54167 -2.78963,0.54167q-3.12939,0 -4.96582,-2.31111q-1.83721,-2.31111 -1.94605,-6.71667l0,-0.7769l0,-0.73976q0.10885,-2.81667 0.95242,-4.82135q0.84357,-2.00365 2.36745,-3.06944q1.52388,-1.06476 3.56478,-1.06476q2.31303,0 3.83691,1.24532q1.52388,1.24635 2.29981,3.39444q0.77516,2.14913 0.77516,4.92968zm10.20454,9.56944l-2.44909,0q-0.40818,0 -0.61188,-0.27135q-0.20448,-0.27032 -0.34054,-0.63143l-5.11587,-16.75556q-0.05442,-0.14444 -0.05442,-0.325q0,-0.325 0.17727,-0.56024q0.17649,-0.23421 0.4214,-0.23421l2.63957,0q0.35376,0 0.53102,0.25278q0.17649,0.25278 0.23091,0.46944l3.34709,11.88056l3.34709,-11.88056q0.08164,-0.21667 0.24491,-0.46944q0.16327,-0.25278 0.51703,-0.25278l2.63957,0q0.24491,0 0.42218,0.23421q0.17649,0.23524 0.17649,0.56024q0,0.18056 -0.02721,0.325l-5.11587,16.75556q-0.10885,0.36111 -0.32655,0.63143q-0.2177,0.27135 -0.65309,0.27135zm-118.61752,0l-2.88448,0q-0.27212,0 -0.47582,-0.25278q-0.20448,-0.25278 -0.20448,-0.65l0,-16.97222q0,-0.36111 0.20448,-0.63246q0.2037,-0.27032 0.47582,-0.27032l2.66679,0q0.29933,0 0.48982,0.27032q0.19048,0.27135 0.19048,0.63246l0,1.44444q0.6803,-1.11944 1.68715,-1.73333q1.00685,-0.61389 2.28582,-0.61389l1.17012,0q0.29933,0 0.48982,0.25278q0.19048,0.25278 0.19048,0.65l0,3.14167q0,0.36111 -0.19048,0.61389q-0.19048,0.25278 -0.48982,0.25278l-2.36745,0q-1.22454,0 -1.89085,0.90278q-0.66709,0.90278 -0.66709,2.49167l0,9.56944q0,0.39722 -0.2037,0.65q-0.20448,0.25278 -0.4766,0.25278zm84.79289,-3.97222q1.00685,0 1.61951,-0.61389q0.61188,-0.61389 0.898,-1.55278q0.28534,-0.93889 0.31255,-2.02222q0.05442,-0.68611 0.05442,-1.37222q0,-0.68611 -0.05442,-1.33611q-0.02721,-1.01111 -0.33976,-1.89635q-0.31333,-0.88421 -0.91199,-1.46198q-0.59867,-0.57778 -1.5783,-0.57778q-1.03406,0 -1.63273,0.59532q-0.59867,0.59635 -0.85679,1.57135q-0.2589,0.975 -0.31333,2.13056q-0.05442,1.11944 0,2.23889q0.05442,1.15556 0.31333,2.13056q0.25813,0.975 0.85679,1.57032q0.59867,0.59635 1.63273,0.59635zm-10.42223,3.97222l-3.07497,0q-0.29933,0 -0.48982,-0.25278q-0.19048,-0.25278 -0.19048,-0.65l0,-4.08056q0,-0.36111 0.19048,-0.63246q0.19048,-0.27032 0.48982,-0.27032l3.07497,0q0.27212,0 0.4766,0.27032q0.2037,0.27135 0.2037,0.63246l0,4.08056q0,0.39722 -0.2037,0.65q-0.20448,0.25278 -0.4766,0.25278zm-25.76985,-8.08889l0,-0.61389l-2.53072,0.54167q-1.44224,0.325 -2.12254,0.975q-0.6803,0.65 -0.6803,1.58889q0,0.68611 0.31333,1.1731q0.31255,0.48802 0.81636,0.75833q0.50304,0.27135 1.07449,0.27135q0.898,0 1.60551,-0.50556q0.70751,-0.50556 1.1157,-1.55278q0.40818,-1.04722 0.40818,-2.63611zm-36.62748,-3.17778l0,0.10833l5.30636,0l0,-0.10833q0,-1.26389 -0.31255,-2.22135q-0.31333,-0.95643 -0.91199,-1.4981q-0.59867,-0.54167 -1.44224,-0.54167q-0.84357,0 -1.42825,0.54167q-0.58545,0.54167 -0.898,1.4981q-0.31333,0.95746 -0.31333,2.22135zm86.88822,0l0,0.10833l5.30636,0l0,-0.10833q0,-1.26389 -0.31255,-2.22135q-0.31333,-0.95643 -0.91199,-1.4981q-0.59867,-0.54167 -1.44224,-0.54167q-0.84357,0 -1.42825,0.54167q-0.58545,0.54167 -0.898,1.4981q-0.31333,0.95746 -0.31333,2.22135z" fill-rule="nonzero" fill="#FFFFFF"/>
  <polygon id="svg_2" points="0 26 26 52 52 26 26 0 26 26" fill="#54D28F"/>
  <polygon id="svg_3" opacity="0.1" points="26 26 26 52 13 26" fill="#000"/>
 </g>
</svg>