<svg width="250" height="52" xmlns="http://www.w3.org/2000/svg">
 <g>
  <title>background</title>
  <rect fill="none" id="canvas_background" height="54" width="252" y="-1" x="-1"/>
 </g>

 <g>
  <title>Layer 1</title>
  <path stroke="null" id="svg_1" d="m56.66192,30.574l3.40419,0q0.40976,0 0.63041,0.175q0.22064,0.175 0.40976,0.455q0.22064,0.63 0.70965,1.19q0.48811,0.56 1.32386,0.91q0.83484,0.35 2.09565,0.35q2.04882,0 3.07368,-0.735q1.02396,-0.735 1.02396,-1.995q0,-0.875 -0.55115,-1.435q-0.55206,-0.56 -1.73362,-1.015q-1.18247,-0.455 -3.13672,-0.945q-2.36403,-0.595 -4.01839,-1.488q-1.65527,-0.892 -2.49011,-2.31q-0.83573,-1.417 -0.83573,-3.517q0,-2.1 1.04017,-3.728q1.04017,-1.627 2.93139,-2.555q1.89121,-0.927 4.5074,-0.927q2.11186,0 3.7356,0.63q1.62285,0.63 2.71074,1.645q1.087,1.015 1.65436,2.17q0.56737,1.155 0.59888,2.24q0,0.315 -0.17291,0.542q-0.17381,0.228 -0.48902,0.228l-3.53028,0q-0.3152,0 -0.56737,-0.14q-0.25216,-0.14 -0.44129,-0.49q-0.1576,-0.945 -1.087,-1.61q-0.9303,-0.665 -2.41176,-0.665q-1.54449,0 -2.44238,0.612q-0.89878,0.613 -0.89878,1.908q0,0.84 0.4728,1.417q0.4728,0.578 1.54449,1.015q1.07169,0.438 2.89987,0.928q2.74227,0.63 4.47589,1.522q1.73362,0.893 2.55315,2.275q0.81953,1.383 0.81953,3.483q0,2.345 -1.16625,4.025q-1.16625,1.68 -3.24659,2.572q-2.08034,0.893 -4.82261,0.893q-3.02595,0 -5.05855,-0.98q-2.03351,-0.98 -3.07368,-2.555q-1.04017,-1.575 -1.10321,-3.36q0,-0.315 0.18912,-0.525q0.18912,-0.21 0.4728,-0.21zm25.02712,7.28l-3.40419,0q-0.34672,0 -0.56737,-0.245q-0.22064,-0.245 -0.22064,-0.63l0,-23.1q0,-0.385 0.22064,-0.63q0.22064,-0.245 0.56737,-0.245l3.40419,0q0.34672,0 0.56737,0.245q0.22064,0.245 0.22064,0.63l0,7.875q0.81953,-1.12 2.06503,-1.785q1.2446,-0.665 2.97822,-0.665q1.8597,0 3.29432,0.927q1.43372,0.928 2.23794,2.695q0.80332,1.768 0.80332,4.288l0,9.765q0,0.385 -0.22064,0.63q-0.22064,0.245 -0.56737,0.245l-3.43571,0q-0.3152,0 -0.53584,-0.245q-0.22064,-0.245 -0.22064,-0.63l0,-9.555q0,-1.855 -0.81953,-2.888q-0.81953,-1.032 -2.3325,-1.032q-1.48145,0 -2.36403,1.032q-0.88257,1.033 -0.88257,2.888l0,9.555q0,0.385 -0.22064,0.63q-0.22064,0.245 -0.56737,0.245zm84.72656,-5.04l3.05746,0q0.12608,0 0.20534,0.035q0.07835,0.035 0.20443,0.175q0.40976,0.315 0.83573,0.717q0.42507,0.403 1.02396,0.683q0.59888,0.28 1.44994,0.28q1.04017,0 1.74982,-0.473q0.70876,-0.472 0.70876,-1.347q0,-0.63 -0.3152,-1.05q-0.3152,-0.42 -1.22929,-0.77q-0.91409,-0.35 -2.71074,-0.77q-1.70209,-0.42 -2.89987,-1.12q-1.19778,-0.7 -1.79666,-1.768q-0.59888,-1.067 -0.59888,-2.572q0,-1.365 0.77269,-2.625q0.7718,-1.26 2.28477,-2.083q1.51298,-0.822 3.78244,-0.822q1.73362,0 3.04216,0.472q1.30764,0.473 2.19021,1.19q0.88257,0.718 1.34006,1.47q0.4566,0.753 0.48811,1.313a0.93571,1.039 0 0 1 0.0045,0.094a0.65472,0.727 0 0 1 -0.19362,0.536q-0.22064,0.245 -0.50433,0.245l-2.80531,0q-0.1576,0 -0.28368,-0.07q-0.12608,-0.07 -0.22064,-0.175q-0.37824,-0.245 -0.7718,-0.63q-0.39445,-0.385 -0.9303,-0.665q-0.53584,-0.28 -1.3869,-0.28q-1.00865,0 -1.55981,0.507q-0.55206,0.508 -0.55206,1.278a1.33826,1.486 0 0 0 0.28368,0.91q0.28368,0.42 1.15094,0.77q0.86636,0.35 2.69454,0.735q2.14338,0.42 3.40419,1.26q1.26082,0.84 1.79666,1.942q0.53584,1.103 0.53584,2.363q0,1.645 -0.86636,2.922q-0.86726,1.278 -2.56935,1.995q-1.70209,0.718 -4.16068,0.718q-1.95425,0 -3.35646,-0.508q-1.4031,-0.507 -2.26946,-1.242q-0.86726,-0.735 -1.29233,-1.488q-0.42598,-0.752 -0.45749,-1.277a0.83394,0.926 0 0 1 -0.00361,-0.084a0.62591,0.695 0 0 1 0.22424,-0.546q0.25216,-0.245 0.50433,-0.245zm-30.6062,11.69l-2.96291,0q-0.25216,0 -0.4566,-0.21q-0.20534,-0.21 -0.20534,-0.525q0,-0.07 0.03151,-0.193q0.03151,-0.122 0.09456,-0.297l2.45858,-6.545l-6.0519,-15.855q-0.09456,-0.28 -0.09456,-0.455a0.83844,0.931 0 0 1 0.22064,-0.543q0.18912,-0.227 0.4728,-0.227l3.08899,0q0.37824,0 0.56737,0.227a1.50487,1.671 0 0 1 0.28368,0.473l3.90852,10.815l4.00308,-10.815q0.12608,-0.28 0.3152,-0.49q0.18912,-0.21 0.59888,-0.21l2.99443,0q0.28368,0 0.48902,0.227q0.20443,0.228 0.20443,0.508q0,0.175 -0.09456,0.49l-8.92025,22.925q-0.12608,0.28 -0.33051,0.49q-0.20534,0.21 -0.6151,0.21l0.00002,0zm18.02961,-17.57l4.12916,-0.665l0,-0.63q0,-1.365 -0.56737,-2.1q-0.56737,-0.735 -1.98578,-0.735q-0.85105,0 -1.3869,0.315q-0.53584,0.315 -0.91409,0.717q-0.37824,0.403 -0.72496,0.718q-0.09456,0.21 -0.18912,0.28q-0.09456,0.07 -0.25216,0.07l-2.89987,0q-0.3152,0 -0.51964,-0.228a0.56826,0.631 0 0 1 -0.17742,-0.46a0.67183,0.746 0 0 1 0.00361,-0.082q0,-0.595 0.40976,-1.4q0.40976,-0.805 1.26082,-1.593q0.85105,-0.787 2.19111,-1.312q1.33916,-0.525 3.23038,-0.525q1.98578,0 3.40419,0.525q1.41841,0.525 2.28567,1.47q0.86636,0.945 1.26082,2.187q0.39356,1.243 0.39356,2.678l0,10.815q0,0.385 -0.22064,0.63q-0.22064,0.245 -0.53584,0.245l-3.1205,0q-0.3152,0 -0.53584,-0.245q-0.22064,-0.245 -0.22064,-0.63l0,-1.295q-0.40976,0.665 -1.10321,1.242q-0.69345,0.578 -1.65436,0.928q-0.96182,0.35 -2.25415,0.35q-1.67058,0 -2.99443,-0.718q-1.32386,-0.717 -2.11186,-1.942q-0.788,-1.225 -0.788,-2.73q0,-2.485 1.81286,-3.92q1.81197,-1.435 4.77488,-1.96l-0.00002,0zm49.3923,-5.46l0,-7.595q0,-0.385 0.22064,-0.63q0.22064,-0.245 0.56737,-0.245l3.24659,0q0.34672,0 0.56737,0.245q0.22064,0.245 0.22064,0.63l0,23.1q0,0.385 -0.22064,0.63q-0.22064,0.245 -0.56737,0.245l-3.02595,0q-0.3152,0 -0.53584,-0.245q-0.22064,-0.245 -0.22064,-0.63l0,-1.19q-0.788,1.05 -1.98578,1.732q-1.19778,0.683 -2.99443,0.683q-1.57601,0 -2.80531,-0.578q-1.22929,-0.577 -2.08034,-1.68q-0.85105,-1.102 -1.29233,-2.625q-0.44129,-1.522 -0.53584,-3.377q-0.03151,-0.665 -0.03151,-1.208q0,-0.542 0.03151,-1.172q0.06304,-1.82 0.52053,-3.325q0.4566,-1.505 1.29233,-2.608q0.83484,-1.102 2.08034,-1.715q1.2446,-0.612 2.82062,-0.612q1.63905,0 2.80531,0.612q1.16625,0.613 1.92274,1.558zm-76.5628,7.105l0,0.805q0,0.35 -0.22064,0.612q-0.22064,0.263 -0.56737,0.263l-10.27562,0l0,0.087l0,0.158q0.03151,1.12 0.37824,2.047q0.34672,0.928 1.02486,1.488q0.67723,0.56 1.65436,0.56q0.75649,0 1.26082,-0.263q0.50433,-0.262 0.83573,-0.595q0.33051,-0.332 0.48811,-0.577q0.28368,-0.385 0.45749,-0.473q0.17291,-0.087 0.51964,-0.087l3.34115,0q0.28368,0 0.48902,0.21a0.52234,0.58 0 0 1 0.17742,0.443a0.67003,0.744 0 0 1 -0.0045,0.082q-0.03151,0.595 -0.51964,1.417q-0.48902,0.823 -1.43463,1.61q-0.94561,0.788 -2.34781,1.313q-1.4031,0.525 -3.23129,0.525q-3.62483,0 -5.752,-2.24q-2.12807,-2.24 -2.25415,-6.51l0,-0.753l0,-0.717q0.12608,-2.73 1.10321,-4.673q0.97713,-1.942 2.74227,-2.975q1.76513,-1.032 4.12916,-1.032q2.67923,0 4.44436,1.207q1.76513,1.208 2.66392,3.29q0.89788,2.083 0.89788,4.778zm100.64432,0l0,0.805q0,0.35 -0.22064,0.612q-0.22064,0.263 -0.56737,0.263l-10.27562,0l0,0.087l0,0.158q0.03151,1.12 0.37824,2.047q0.34672,0.928 1.02486,1.488q0.67723,0.56 1.65436,0.56q0.75649,0 1.26082,-0.263q0.50433,-0.262 0.83573,-0.595q0.33051,-0.332 0.48811,-0.577q0.28368,-0.385 0.45749,-0.473q0.17291,-0.087 0.51964,-0.087l3.34115,0q0.28368,0 0.48902,0.21a0.52234,0.58 0 0 1 0.17742,0.443a0.67003,0.744 0 0 1 -0.0045,0.082q-0.03151,0.595 -0.51964,1.417q-0.48902,0.823 -1.43463,1.61q-0.94561,0.788 -2.34781,1.313q-1.4031,0.525 -3.23129,0.525q-3.62483,0 -5.752,-2.24q-2.12807,-2.24 -2.25415,-6.51l0,-0.753l0,-0.717q0.12608,-2.73 1.10321,-4.673q0.97713,-1.942 2.74227,-2.975q1.76513,-1.032 4.12916,-1.032q2.67923,0 4.44436,1.207q1.76513,1.208 2.66392,3.29q0.89788,2.083 0.89788,4.778zm11.82012,9.275l-2.83683,0q-0.4728,0 -0.70876,-0.263q-0.23685,-0.262 -0.39445,-0.612l-5.92582,-16.24q-0.06304,-0.14 -0.06304,-0.315q0,-0.315 0.20534,-0.543q0.20443,-0.227 0.48811,-0.227l3.05746,0q0.40976,0 0.6151,0.245q0.20443,0.245 0.26747,0.455l3.87699,11.515l3.87699,-11.515q0.09456,-0.21 0.28368,-0.455q0.18912,-0.245 0.59888,-0.245l3.05746,0q0.28368,0 0.48902,0.227q0.20443,0.228 0.20443,0.543q0,0.175 -0.03151,0.315l-5.92582,16.24q-0.12608,0.35 -0.37824,0.612q-0.25216,0.263 -0.75649,0.263l0.00001,0zm-137.39699,0l-3.34115,0q-0.3152,0 -0.55115,-0.245q-0.23685,-0.245 -0.23685,-0.63l0,-16.45q0,-0.35 0.23685,-0.613q0.23595,-0.262 0.55115,-0.262l3.08899,0q0.34672,0 0.56737,0.262q0.22064,0.263 0.22064,0.613l0,1.4q0.788,-1.085 1.95425,-1.68q1.16625,-0.595 2.6477,-0.595l1.35537,0q0.34672,0 0.56737,0.245q0.22064,0.245 0.22064,0.63l0,3.045q0,0.35 -0.22064,0.595q-0.22064,0.245 -0.56737,0.245l-2.74227,0q-1.41841,0 -2.19021,0.875q-0.77269,0.875 -0.77269,2.415l0,9.275q0,0.385 -0.23595,0.63q-0.23685,0.245 -0.55206,0.245l0.00001,0zm98.21725,-3.85q1.16625,0 1.8759,-0.595q0.70876,-0.595 1.04017,-1.505q0.33051,-0.91 0.36203,-1.96q0.06304,-0.665 0.06304,-1.33q0,-0.665 -0.06304,-1.295q-0.03151,-0.98 -0.39356,-1.838q-0.36293,-0.857 -1.05638,-1.417q-0.69345,-0.56 -1.82817,-0.56q-1.19778,0 -1.89121,0.577q-0.69345,0.578 -0.99244,1.523q-0.29989,0.945 -0.36293,2.065q-0.06304,1.085 0,2.17q0.06304,1.12 0.36293,2.065q0.29899,0.945 0.99244,1.522q0.69345,0.578 1.89121,0.578l0.00001,0zm-12.07228,3.85l-3.56179,0q-0.34672,0 -0.56737,-0.245q-0.22064,-0.245 -0.22064,-0.63l0,-3.955q0,-0.35 0.22064,-0.613q0.22064,-0.262 0.56737,-0.262l3.56179,0q0.3152,0 0.55206,0.262q0.23595,0.263 0.23595,0.613l0,3.955q0,0.385 -0.23595,0.63q-0.23685,0.245 -0.55206,0.245zm-29.84973,-7.84l0,-0.595l-2.93139,0.525q-1.67058,0.315 -2.45858,0.945q-0.788,0.63 -0.788,1.54q0,0.665 0.36293,1.137q0.36203,0.473 0.94561,0.735q0.58268,0.263 1.2446,0.263q1.04017,0 1.8597,-0.49q0.81953,-0.49 1.29233,-1.505q0.4728,-1.015 0.4728,-2.555zm-42.42632,-3.08l0,0.105l6.14645,0l0,-0.105q0,-1.225 -0.36203,-2.153q-0.36293,-0.927 -1.05638,-1.452q-0.69345,-0.525 -1.67058,-0.525q-0.97713,0 -1.65436,0.525q-0.67814,0.525 -1.04017,1.452q-0.36293,0.928 -0.36293,2.153zm100.64432,0l0,0.105l6.14645,0l0,-0.105q0,-1.225 -0.36203,-2.153q-0.36293,-0.927 -1.05638,-1.452q-0.69345,-0.525 -1.67058,-0.525q-0.97713,0 -1.65436,0.525q-0.67814,0.525 -1.04017,1.452q-0.36293,0.928 -0.36293,2.153z" fill-rule="nonzero" fill="#2A2C2F"/>
  <polygon id="svg_2" points="0 26 26 52 52 26 26 0 26 26" fill="#54D28F"/>
  <polygon id="svg_3" opacity="0.1" points="26 26 26 52 13 26" fill="#000"/>
 </g>
</svg>
