<svg width="225" height="52" xmlns="http://www.w3.org/2000/svg">
 <g>
  <title>background</title>
  <rect x="-1" y="-1" width="227" height="54" id="canvas_background" fill="none"/>
 </g>

 <g>
  <title>Layer 1</title>
  <path stroke="null" fill="#2A2C2F" fill-rule="nonzero" d="m56.58537,30.574l3.01049,0q0.36237,0 0.5575,0.175q0.19512,0.175 0.36237,0.455q0.19512,0.63 0.62758,1.19q0.43166,0.56 1.17075,0.91q0.73829,0.35 1.85328,0.35q1.81187,0 2.7182,-0.735q0.90554,-0.735 0.90554,-1.995q0,-0.875 -0.48741,-1.435q-0.48821,-0.56 -1.53312,-1.015q-1.04571,-0.455 -2.77395,-0.945q-2.09062,-0.595 -3.55365,-1.488q-1.46383,-0.892 -2.20212,-2.31q-0.73908,-1.417 -0.73908,-3.517q0,-2.1 0.91987,-3.728q0.91987,-1.627 2.59237,-2.555q1.67249,-0.927 3.98611,-0.927q1.86762,0 3.30357,0.63q1.43516,0.63 2.39724,1.645q0.96129,1.015 1.46303,2.17q0.50175,1.155 0.52962,2.24q0,0.315 -0.15291,0.542q-0.15371,0.228 -0.43246,0.228l-3.12199,0q-0.27875,0 -0.50175,-0.14q-0.223,-0.14 -0.39025,-0.49q-0.13937,-0.945 -0.96129,-1.61q-0.82271,-0.665 -2.13283,-0.665q-1.36587,0 -2.15991,0.612q-0.79483,0.613 -0.79483,1.908q0,0.84 0.41812,1.417q0.41812,0.578 1.36587,1.015q0.94775,0.438 2.56449,0.928q2.42512,0.63 3.95824,1.522q1.53312,0.893 2.25787,2.275q0.72475,1.383 0.72475,3.483q0,2.345 -1.03137,4.025q-1.03137,1.68 -2.87111,2.572q-1.83974,0.893 -4.26486,0.893q-2.67599,0 -4.47352,-0.98q-1.79833,-0.98 -2.7182,-2.555q-0.91987,-1.575 -0.97562,-3.36q0,-0.315 0.16725,-0.525q0.16725,-0.21 0.41812,-0.21zm22.13267,7.28l-3.01049,0q-0.30662,0 -0.50175,-0.245q-0.19512,-0.245 -0.19512,-0.63l0,-23.1q0,-0.385 0.19512,-0.63q0.19512,-0.245 0.50175,-0.245l3.01049,0q0.30662,0 0.50175,0.245q0.19512,0.245 0.19512,0.63l0,7.875q0.72475,-1.12 1.8262,-1.785q1.10066,-0.665 2.63378,-0.665q1.64462,0 2.91332,0.927q1.26791,0.928 1.97912,2.695q0.71041,1.768 0.71041,4.288l0,9.765q0,0.385 -0.19512,0.63q-0.19512,0.245 -0.50175,0.245l-3.03836,0q-0.27875,0 -0.47387,-0.245q-0.19512,-0.245 -0.19512,-0.63l0,-9.555q0,-1.855 -0.72475,-2.888q-0.72475,-1.032 -2.06274,-1.032q-1.31012,0 -2.09062,1.032q-0.7805,1.033 -0.7805,2.888l0,9.555q0,0.385 -0.19512,0.63q-0.19512,0.245 -0.50175,0.245zm74.92772,-5.04l2.70386,0q0.1115,0 0.18159,0.035q0.06929,0.035 0.18079,0.175q0.36237,0.315 0.73908,0.717q0.37591,0.403 0.90554,0.683q0.52962,0.28 1.28225,0.28q0.91987,0 1.54745,-0.473q0.62679,-0.472 0.62679,-1.347q0,-0.63 -0.27875,-1.05q-0.27875,-0.42 -1.08712,-0.77q-0.80837,-0.35 -2.39724,-0.77q-1.50524,-0.42 -2.56449,-1.12q-1.05925,-0.7 -1.58887,-1.768q-0.52962,-1.067 -0.52962,-2.572q0,-1.365 0.68333,-2.625q0.68254,-1.26 2.02053,-2.083q1.338,-0.822 3.34499,-0.822q1.53312,0 2.69033,0.472q1.15641,0.473 1.93691,1.19q0.7805,0.718 1.18508,1.47q0.40379,0.753 0.43166,1.313a0.82749,1.039 0 0 1 0.00398,0.094a0.579,0.727 0 0 1 -0.17123,0.536q-0.19512,0.245 -0.446,0.245l-2.48087,0q-0.13937,0 -0.25087,-0.07q-0.1115,-0.07 -0.19512,-0.175q-0.3345,-0.245 -0.68254,-0.63q-0.34883,-0.385 -0.82271,-0.665q-0.47387,-0.28 -1.2265,-0.28q-0.892,0 -1.37941,0.507q-0.48821,0.508 -0.48821,1.278a1.18349,1.486 0 0 0 0.25087,0.91q0.25087,0.42 1.01783,0.77q0.76616,0.35 2.38291,0.735q1.89549,0.42 3.01049,1.26q1.115,0.84 1.58887,1.942q0.47387,1.103 0.47387,2.363q0,1.645 -0.76616,2.922q-0.76696,1.278 -2.2722,1.995q-1.50524,0.718 -3.67949,0.718q-1.72824,0 -2.96828,-0.508q-1.24083,-0.507 -2.00699,-1.242q-0.76696,-0.735 -1.14287,-1.488q-0.37671,-0.752 -0.40458,-1.277a0.73749,0.926 0 0 1 -0.00319,-0.084a0.55352,0.695 0 0 1 0.19831,-0.546q0.223,-0.245 0.446,-0.245zm-27.06652,11.69l-2.62024,0q-0.223,0 -0.40379,-0.21q-0.18159,-0.21 -0.18159,-0.525q0,-0.07 0.02787,-0.193q0.02787,-0.122 0.08362,-0.297l2.17424,-6.545l-5.35198,-15.855q-0.08362,-0.28 -0.08362,-0.455a0.74147,0.931 0 0 1 0.19512,-0.543q0.16725,-0.227 0.41812,-0.227l2.73174,0q0.3345,0 0.50175,0.227a1.33083,1.671 0 0 1 0.25087,0.473l3.45649,10.815l3.54011,-10.815q0.1115,-0.28 0.27875,-0.49q0.16725,-0.21 0.52962,-0.21l2.64812,0q0.25087,0 0.43246,0.227q0.18079,0.228 0.18079,0.508q0,0.175 -0.08362,0.49l-7.8886,22.925q-0.1115,0.28 -0.29229,0.49q-0.18159,0.21 -0.54396,0.21zm15.94444,-17.57l3.65161,-0.665l0,-0.63q0,-1.365 -0.50175,-2.1q-0.50175,-0.735 -1.75612,-0.735q-0.75262,0 -1.2265,0.315q-0.47387,0.315 -0.80837,0.717q-0.3345,0.403 -0.64112,0.718q-0.08362,0.21 -0.16725,0.28q-0.08362,0.07 -0.223,0.07l-2.56449,0q-0.27875,0 -0.45954,-0.228a0.50254,0.631 0 0 1 -0.1569,-0.46a0.59413,0.746 0 0 1 0.00319,-0.082q0,-0.595 0.36237,-1.4q0.36237,-0.805 1.115,-1.593q0.75262,-0.787 1.9377,-1.312q1.18428,-0.525 2.85678,-0.525q1.75612,0 3.01049,0.525q1.25437,0.525 2.02133,1.47q0.76616,0.945 1.115,2.187q0.34804,1.243 0.34804,2.678l0,10.815q0,0.385 -0.19512,0.63q-0.19512,0.245 -0.47387,0.245l-2.75961,0q-0.27875,0 -0.47387,-0.245q-0.19512,-0.245 -0.19512,-0.63l0,-1.295q-0.36237,0.665 -0.97562,1.242q-0.61325,0.578 -1.46303,0.928q-0.85058,0.35 -1.99345,0.35q-1.47737,0 -2.64812,-0.718q-1.17075,-0.717 -1.86762,-1.942q-0.69687,-1.225 -0.69687,-2.73q0,-2.485 1.6032,-3.92q1.60241,-1.435 4.22265,-1.96zm43.67996,-5.46l0,-7.595q0,-0.385 0.19512,-0.63q0.19512,-0.245 0.50175,-0.245l2.87111,0q0.30662,0 0.50175,0.245q0.19512,0.245 0.19512,0.63l0,23.1q0,0.385 -0.19512,0.63q-0.19512,0.245 -0.50175,0.245l-2.67599,0q-0.27875,0 -0.47387,-0.245q-0.19512,-0.245 -0.19512,-0.63l0,-1.19q-0.69687,1.05 -1.75612,1.732q-1.05925,0.683 -2.64812,0.683q-1.39374,0 -2.48087,-0.578q-1.08712,-0.577 -1.83974,-1.68q-0.75262,-1.102 -1.14287,-2.625q-0.39025,-1.522 -0.47387,-3.377q-0.02787,-0.665 -0.02787,-1.208q0,-0.542 0.02787,-1.172q0.05575,-1.82 0.46033,-3.325q0.40379,-1.505 1.14287,-2.608q0.73829,-1.102 1.83974,-1.715q1.10066,-0.612 2.49441,-0.612q1.44949,0 2.48087,0.612q1.03137,0.613 1.70037,1.558zm-67.70812,7.105l0,0.805q0,0.35 -0.19512,0.612q-0.19512,0.263 -0.50175,0.263l-9.08722,0l0,0.087l0,0.158q0.02787,1.12 0.3345,2.047q0.30662,0.928 0.90633,1.488q0.59891,0.56 1.46303,0.56q0.669,0 1.115,-0.263q0.446,-0.262 0.73908,-0.595q0.29229,-0.332 0.43166,-0.577q0.25087,-0.385 0.40458,-0.473q0.15291,-0.087 0.45954,-0.087l2.95474,0q0.25087,0 0.43246,0.21a0.46193,0.58 0 0 1 0.1569,0.443a0.59254,0.744 0 0 1 -0.00398,0.082q-0.02787,0.595 -0.45954,1.417q-0.43246,0.823 -1.26871,1.61q-0.83625,0.788 -2.07628,1.313q-1.24083,0.525 -2.85758,0.525q-3.20561,0 -5.08677,-2.24q-1.88195,-2.24 -1.99345,-6.51l0,-0.753l0,-0.717q0.1115,-2.73 0.97562,-4.673q0.86412,-1.942 2.42512,-2.975q1.56099,-1.032 3.65161,-1.032q2.36937,0 3.93036,1.207q1.56099,1.208 2.35583,3.29q0.79404,2.083 0.79404,4.778zm89.00455,0l0,0.805q0,0.35 -0.19512,0.612q-0.19512,0.263 -0.50175,0.263l-9.08722,0l0,0.087l0,0.158q0.02787,1.12 0.3345,2.047q0.30662,0.928 0.90633,1.488q0.59891,0.56 1.46303,0.56q0.669,0 1.115,-0.263q0.446,-0.262 0.73908,-0.595q0.29229,-0.332 0.43166,-0.577q0.25087,-0.385 0.40458,-0.473q0.15291,-0.087 0.45954,-0.087l2.95474,0q0.25087,0 0.43246,0.21a0.46193,0.58 0 0 1 0.1569,0.443a0.59254,0.744 0 0 1 -0.00398,0.082q-0.02787,0.595 -0.45954,1.417q-0.43246,0.823 -1.26871,1.61q-0.83625,0.788 -2.07628,1.313q-1.24083,0.525 -2.85758,0.525q-3.20561,0 -5.08677,-2.24q-1.88195,-2.24 -1.99345,-6.51l0,-0.753l0,-0.717q0.1115,-2.73 0.97562,-4.673q0.86412,-1.942 2.42512,-2.975q1.56099,-1.032 3.65161,-1.032q2.36937,0 3.93036,1.207q1.56099,1.208 2.35583,3.29q0.79404,2.083 0.79404,4.778zm10.45309,9.275l-2.50874,0q-0.41812,0 -0.62679,-0.263q-0.20946,-0.262 -0.34883,-0.612l-5.24048,-16.24q-0.05575,-0.14 -0.05575,-0.315q0,-0.315 0.18159,-0.543q0.18079,-0.227 0.43166,-0.227l2.70386,0q0.36237,0 0.54396,0.245q0.18079,0.245 0.23654,0.455l3.42861,11.515l3.42861,-11.515q0.08362,-0.21 0.25087,-0.455q0.16725,-0.245 0.52962,-0.245l2.70386,0q0.25087,0 0.43246,0.227q0.18079,0.228 0.18079,0.543q0,0.175 -0.02787,0.315l-5.24048,16.24q-0.1115,0.35 -0.3345,0.612q-0.223,0.263 -0.669,0.263zm-121.50668,0l-2.95474,0q-0.27875,0 -0.48741,-0.245q-0.20946,-0.245 -0.20946,-0.63l0,-16.45q0,-0.35 0.20946,-0.613q0.20866,-0.262 0.48741,-0.262l2.73174,0q0.30662,0 0.50175,0.262q0.19512,0.263 0.19512,0.613l0,1.4q0.69687,-1.085 1.72824,-1.68q1.03137,-0.595 2.34149,-0.595l1.19862,0q0.30662,0 0.50175,0.245q0.19512,0.245 0.19512,0.63l0,3.045q0,0.35 -0.19512,0.595q-0.19512,0.245 -0.50175,0.245l-2.42512,0q-1.25437,0 -1.93691,0.875q-0.68333,0.875 -0.68333,2.415l0,9.275q0,0.385 -0.20866,0.63q-0.20946,0.245 -0.48821,0.245zm86.85818,-3.85q1.03137,0 1.65895,-0.595q0.62679,-0.595 0.91987,-1.505q0.29229,-0.91 0.32016,-1.96q0.05575,-0.665 0.05575,-1.33q0,-0.665 -0.05575,-1.295q-0.02787,-0.98 -0.34804,-1.838q-0.32096,-0.857 -0.93421,-1.417q-0.61325,-0.56 -1.61674,-0.56q-1.05925,0 -1.67249,0.577q-0.61325,0.578 -0.87766,1.523q-0.26521,0.945 -0.32096,2.065q-0.05575,1.085 0,2.17q0.05575,1.12 0.32096,2.065q0.26441,0.945 0.87766,1.522q0.61325,0.578 1.67249,0.578zm-10.67609,3.85l-3.14986,0q-0.30662,0 -0.50175,-0.245q-0.19512,-0.245 -0.19512,-0.63l0,-3.955q0,-0.35 0.19512,-0.613q0.19512,-0.262 0.50175,-0.262l3.14986,0q0.27875,0 0.48821,0.262q0.20866,0.263 0.20866,0.613l0,3.955q0,0.385 -0.20866,0.63q-0.20946,0.245 -0.48821,0.245zm-26.39753,-7.84l0,-0.595l-2.59237,0.525q-1.47737,0.315 -2.17424,0.945q-0.69687,0.63 -0.69687,1.54q0,0.665 0.32096,1.137q0.32016,0.473 0.83625,0.735q0.51529,0.263 1.10066,0.263q0.91987,0 1.64462,-0.49q0.72475,-0.49 1.14287,-1.505q0.41812,-1.015 0.41812,-2.555zm-37.51961,-3.08l0,0.105l5.4356,0l0,-0.105q0,-1.225 -0.32016,-2.153q-0.32096,-0.927 -0.93421,-1.452q-0.61325,-0.525 -1.47737,-0.525q-0.86412,0 -1.46303,0.525q-0.59971,0.525 -0.91987,1.452q-0.32096,0.928 -0.32096,2.153zm89.00455,0l0,0.105l5.4356,0l0,-0.105q0,-1.225 -0.32016,-2.153q-0.32096,-0.927 -0.93421,-1.452q-0.61325,-0.525 -1.47737,-0.525q-0.86412,0 -1.46303,0.525q-0.59971,0.525 -0.91987,1.452q-0.32096,0.928 -0.32096,2.153z" id="svg_1"/>
  <polygon fill="#54D28F" points="0 26 26 52 52 26 26 0 26 26" id="svg_2"/>
  <polygon fill="#000" points="26 26 26 52 13 26" opacity="0.1" id="svg_3"/>
 </g>
</svg>