<svg width="250" height="52" xmlns="http://www.w3.org/2000/svg">
 <g>
  <title>background</title>
  <rect x="-1" y="-1" width="252" height="54" id="canvas_background" fill="none"/>
 </g>

 <g>
  <title>Layer 1</title>
  <path stroke="null" fill="#FFFFFF" fill-rule="nonzero" d="m57.66193,30.13178l3.4042,0q0.40977,0 0.6304,0.18056q0.22064,0.18056 0.40977,0.46944q0.22064,0.65 0.70966,1.22778q0.48812,0.57778 1.32385,0.93889q0.83484,0.36111 2.09565,0.36111q2.04882,0 3.07368,-0.75833q1.02395,-0.75833 1.02395,-2.05833q0,-0.90278 -0.55115,-1.48056q-0.55206,-0.57778 -1.73362,-1.04722q-1.18246,-0.46944 -3.13672,-0.975q-2.36403,-0.61389 -4.01838,-1.53524q-1.65526,-0.92032 -2.49011,-2.38333q-0.83574,-1.46198 -0.83574,-3.62865q0,-2.16667 1.04017,-3.84635q1.04017,-1.67865 2.93138,-2.63611q1.89122,-0.95643 4.5074,-0.95643q2.11186,0 3.7356,0.65q1.62284,0.65 2.71075,1.69722q1.087,1.04722 1.65437,2.23889q0.56737,1.19167 0.59889,2.31111q0,0.325 -0.17291,0.55921q-0.17382,0.23524 -0.48902,0.23524l-3.53027,0q-0.3152,0 -0.56737,-0.14444q-0.25217,-0.14444 -0.44128,-0.50556q-0.1576,-0.975 -1.087,-1.66111q-0.9303,-0.68611 -2.41175,-0.68611q-1.54449,0 -2.44237,0.63143q-0.89877,0.63246 -0.89877,1.96857q0,0.86667 0.4728,1.46198q0.4728,0.59635 1.54449,1.04722q1.07169,0.4519 2.89986,0.95746q2.74226,0.65 4.47588,1.57032q1.73362,0.92135 2.55314,2.34722q0.81952,1.4269 0.81952,3.59357q0,2.41944 -1.16625,4.15278q-1.16625,1.73333 -3.2466,2.65365q-2.08034,0.92135 -4.8226,0.92135q-3.02595,0 -5.05855,-1.01111q-2.03351,-1.01111 -3.07368,-2.63611q-1.04017,-1.625 -1.10321,-3.46667q0,-0.325 0.18912,-0.54167q0.18912,-0.21667 0.4728,-0.21667l0.00001,0zm25.02711,7.51111l-3.4042,0q-0.34672,0 -0.56737,-0.25278q-0.22064,-0.25278 -0.22064,-0.65l0,-23.83333q0,-0.39722 0.22064,-0.65q0.22064,-0.25278 0.56737,-0.25278l3.4042,0q0.34672,0 0.56737,0.25278q0.22064,0.25278 0.22064,0.65l0,8.125q0.81952,-1.15556 2.06503,-1.84167q1.2446,-0.68611 2.97821,-0.68611q1.85969,0 3.29432,0.95643q1.43372,0.95746 2.23794,2.78056q0.80332,1.82413 0.80332,4.42413l0,10.075q0,0.39722 -0.22064,0.65q-0.22064,0.25278 -0.56737,0.25278l-3.43571,0q-0.3152,0 -0.53585,-0.25278q-0.22064,-0.25278 -0.22064,-0.65l0,-9.85833q0,-1.91389 -0.81952,-2.97968q-0.81952,-1.06476 -2.33251,-1.06476q-1.48146,0 -2.36403,1.06476q-0.88257,1.06579 -0.88257,2.97968l0,9.85833q0,0.39722 -0.22064,0.65q-0.22064,0.25278 -0.56737,0.25278l0.00001,-0.00001zm84.72655,-5.2l3.05747,0q0.12608,0 0.20534,0.03611q0.07835,0.03611 0.20443,0.18056q0.40977,0.325 0.83574,0.73976q0.42507,0.41579 1.02395,0.70468q0.59889,0.28889 1.44994,0.28889q1.04017,0 1.74983,-0.48802q0.70875,-0.48698 0.70875,-1.38976q0,-0.65 -0.3152,-1.08333q-0.3152,-0.43333 -1.22929,-0.79444q-0.91409,-0.36111 -2.71075,-0.79444q-1.70209,-0.43333 -2.89986,-1.15556q-1.19777,-0.72222 -1.79666,-1.82413q-0.59889,-1.10087 -0.59889,-2.65365q0,-1.40833 0.7727,-2.70833q0.7718,-1.3 2.28477,-2.14913q1.51297,-0.8481 3.78243,-0.8481q1.73362,0 3.04216,0.48698q1.30764,0.48802 2.19021,1.22778q0.88257,0.74079 1.34006,1.51667q0.4566,0.7769 0.48812,1.35468a0.9357,1.07198 0 0 1 0.00451,0.09698a0.65472,0.75008 0 0 1 -0.19362,0.55302q-0.22064,0.25278 -0.50432,0.25278l-2.80531,0q-0.1576,0 -0.28368,-0.07222q-0.12608,-0.07222 -0.22064,-0.18056q-0.37825,-0.25278 -0.7718,-0.65q-0.39445,-0.39722 -0.9303,-0.68611q-0.53585,-0.28889 -1.38689,-0.28889q-1.00865,0 -1.5598,0.5231q-0.55206,0.52413 -0.55206,1.31857a1.33826,1.53317 0 0 0 0.28368,0.93889q0.28368,0.43333 1.15094,0.79444q0.86635,0.36111 2.69454,0.75833q2.14338,0.43333 3.4042,1.3q1.26081,0.86667 1.79666,2.00365q0.53585,1.13802 0.53585,2.43802q0,1.69722 -0.86635,3.01476q-0.86726,1.31857 -2.56935,2.05833q-1.70209,0.74079 -4.16068,0.74079q-1.95426,0 -3.35646,-0.52413q-1.40311,-0.5231 -2.26946,-1.28143q-0.86726,-0.75833 -1.29234,-1.53524q-0.42597,-0.77587 -0.45749,-1.31754a0.83393,0.9554 0 0 1 -0.0036,-0.08667a0.6259,0.71706 0 0 1 0.22424,-0.56333q0.25217,-0.25278 0.50432,-0.25278l-0.00002,0.00002zm-30.6062,12.06111l-2.96291,0q-0.25217,0 -0.4566,-0.21667q-0.20534,-0.21667 -0.20534,-0.54167q0,-0.07222 0.03152,-0.19913q0.03152,-0.12587 0.09457,-0.30643l2.45858,-6.75278l-6.05189,-16.35833q-0.09457,-0.28889 -0.09457,-0.46944a0.83844,0.96056 0 0 1 0.22064,-0.56024q0.18912,-0.23421 0.4728,-0.23421l3.08899,0q0.37825,0 0.56737,0.23421a1.50487,1.72405 0 0 1 0.28368,0.48802l3.90852,11.15833l4.00308,-11.15833q0.12608,-0.28889 0.3152,-0.50556q0.18912,-0.21667 0.59889,-0.21667l2.99443,0q0.28368,0 0.48902,0.23421q0.20443,0.23524 0.20443,0.52413q0,0.18056 -0.09457,0.50556l-8.92024,23.65278q-0.12608,0.28889 -0.33051,0.50556q-0.20534,0.21667 -0.61509,0.21667l0,-0.00001zm18.02961,-18.12778l4.12915,-0.68611l0,-0.65q0,-1.40833 -0.56737,-2.16667q-0.56737,-0.75833 -1.98578,-0.75833q-0.85105,0 -1.38689,0.325q-0.53585,0.325 -0.91409,0.73976q-0.37825,0.41579 -0.72497,0.74079q-0.09457,0.21667 -0.18912,0.28889q-0.09457,0.07222 -0.25217,0.07222l-2.89986,0q-0.3152,0 -0.51963,-0.23524a0.56827,0.65103 0 0 1 -0.17742,-0.4746a0.67184,0.76968 0 0 1 0.0036,-0.0846q0,-0.61389 0.40977,-1.44444q0.40977,-0.83056 1.26081,-1.64357q0.85105,-0.81198 2.19111,-1.35365q1.33917,-0.54167 3.23038,-0.54167q1.98578,0 3.4042,0.54167q1.41841,0.54167 2.28568,1.51667q0.86635,0.975 1.26081,2.25643q0.39355,1.28246 0.39355,2.76302l0,11.15833q0,0.39722 -0.22064,0.65q-0.22064,0.25278 -0.53585,0.25278l-3.12051,0q-0.3152,0 -0.53585,-0.25278q-0.22064,-0.25278 -0.22064,-0.65l0,-1.33611q-0.40977,0.68611 -1.10321,1.28143q-0.69345,0.59635 -1.65437,0.95746q-0.96182,0.36111 -2.25415,0.36111q-1.67057,0 -2.99443,-0.74079q-1.32385,-0.73976 -2.11186,-2.00365q-0.788,-1.26389 -0.788,-2.81667q0,-2.56389 1.81286,-4.04444q1.81197,-1.48056 4.77487,-2.02222l0.00001,-0.00002zm49.3923,-5.63333l0,-7.83611q0,-0.39722 0.22064,-0.65q0.22064,-0.25278 0.56737,-0.25278l3.2466,0q0.34672,0 0.56737,0.25278q0.22064,0.25278 0.22064,0.65l0,23.83333q0,0.39722 -0.22064,0.65q-0.22064,0.25278 -0.56737,0.25278l-3.02595,0q-0.3152,0 -0.53585,-0.25278q-0.22064,-0.25278 -0.22064,-0.65l0,-1.22778q-0.788,1.08333 -1.98578,1.78698q-1.19777,0.70468 -2.99443,0.70468q-1.57601,0 -2.80531,-0.59635q-1.22929,-0.59532 -2.08034,-1.73333q-0.85105,-1.13698 -1.29234,-2.70833q-0.44128,-1.57032 -0.53585,-3.48421q-0.03152,-0.68611 -0.03152,-1.24635q0,-0.55921 0.03152,-1.20921q0.06304,-1.87778 0.52054,-3.43056q0.4566,-1.55278 1.29234,-2.69079q0.83484,-1.13698 2.08034,-1.76944q1.2446,-0.63143 2.82061,-0.63143q1.63906,0 2.80531,0.63143q1.16625,0.63246 1.92274,1.60746l0,0.00001zm-76.5628,7.33056l0,0.83056q0,0.36111 -0.22064,0.63143q-0.22064,0.27135 -0.56737,0.27135l-10.27561,0l0,0.08976l0,0.16302q0.03152,1.15556 0.37825,2.11198q0.34672,0.95746 1.02486,1.53524q0.67723,0.57778 1.65437,0.57778q0.75649,0 1.26081,-0.27135q0.50432,-0.27032 0.83574,-0.61389q0.33051,-0.34254 0.48812,-0.59532q0.28368,-0.39722 0.45749,-0.48802q0.17291,-0.08976 0.51963,-0.08976l3.34115,0q0.28368,0 0.48902,0.21667a0.52233,0.59841 0 0 1 0.17742,0.45706a0.67003,0.76762 0 0 1 -0.00451,0.0846q-0.03152,0.61389 -0.51963,1.46198q-0.48902,0.84913 -1.43462,1.66111q-0.94561,0.81302 -2.34781,1.35468q-1.40311,0.54167 -3.23128,0.54167q-3.62483,0 -5.75201,-2.31111q-2.12808,-2.31111 -2.25415,-6.71667l0,-0.7769l0,-0.73976q0.12608,-2.81667 1.10321,-4.82135q0.97712,-2.00365 2.74226,-3.06944q1.76514,-1.06476 4.12915,-1.06476q2.67923,0 4.44437,1.24532q1.76514,1.24635 2.66391,3.39444q0.89788,2.14913 0.89788,4.92968l-0.00001,0zm100.64431,0l0,0.83056q0,0.36111 -0.22064,0.63143q-0.22064,0.27135 -0.56737,0.27135l-10.27561,0l0,0.08976l0,0.16302q0.03152,1.15556 0.37825,2.11198q0.34672,0.95746 1.02486,1.53524q0.67723,0.57778 1.65437,0.57778q0.75649,0 1.26081,-0.27135q0.50432,-0.27032 0.83574,-0.61389q0.33051,-0.34254 0.48812,-0.59532q0.28368,-0.39722 0.45749,-0.48802q0.17291,-0.08976 0.51963,-0.08976l3.34115,0q0.28368,0 0.48902,0.21667a0.52233,0.59841 0 0 1 0.17742,0.45706a0.67003,0.76762 0 0 1 -0.00451,0.0846q-0.03152,0.61389 -0.51963,1.46198q-0.48902,0.84913 -1.43462,1.66111q-0.94561,0.81302 -2.34781,1.35468q-1.40311,0.54167 -3.23128,0.54167q-3.62483,0 -5.75201,-2.31111q-2.12808,-2.31111 -2.25415,-6.71667l0,-0.7769l0,-0.73976q0.12608,-2.81667 1.10321,-4.82135q0.97712,-2.00365 2.74226,-3.06944q1.76514,-1.06476 4.12915,-1.06476q2.67923,0 4.44437,1.24532q1.76514,1.24635 2.66391,3.39444q0.89788,2.14913 0.89788,4.92968l-0.00001,0zm11.82012,9.56944l-2.83683,0q-0.4728,0 -0.70875,-0.27135q-0.23685,-0.27032 -0.39445,-0.63143l-5.92581,-16.75556q-0.06304,-0.14444 -0.06304,-0.325q0,-0.325 0.20534,-0.56024q0.20443,-0.23421 0.48812,-0.23421l3.05747,0q0.40977,0 0.61509,0.25278q0.20443,0.25278 0.26747,0.46944l3.877,11.88056l3.877,-11.88056q0.09457,-0.21667 0.28368,-0.46944q0.18912,-0.25278 0.59889,-0.25278l3.05747,0q0.28368,0 0.48902,0.23421q0.20443,0.23524 0.20443,0.56024q0,0.18056 -0.03152,0.325l-5.92581,16.75556q-0.12608,0.36111 -0.37825,0.63143q-0.25217,0.27135 -0.75649,0.27135l-0.00001,0zm-137.39697,0l-3.34115,0q-0.3152,0 -0.55115,-0.25278q-0.23685,-0.25278 -0.23685,-0.65l0,-16.97222q0,-0.36111 0.23685,-0.63246q0.23595,-0.27032 0.55115,-0.27032l3.08899,0q0.34672,0 0.56737,0.27032q0.22064,0.27135 0.22064,0.63246l0,1.44444q0.788,-1.11944 1.95426,-1.73333q1.16625,-0.61389 2.64771,-0.61389l1.35537,0q0.34672,0 0.56737,0.25278q0.22064,0.25278 0.22064,0.65l0,3.14167q0,0.36111 -0.22064,0.61389q-0.22064,0.25278 -0.56737,0.25278l-2.74226,0q-1.41841,0 -2.19021,0.90278q-0.7727,0.90278 -0.7727,2.49167l0,9.56944q0,0.39722 -0.23595,0.65q-0.23685,0.25278 -0.55206,0.25278l-0.00001,-0.00001zm98.21725,-3.97222q1.16625,0 1.87591,-0.61389q0.70875,-0.61389 1.04017,-1.55278q0.33051,-0.93889 0.36203,-2.02222q0.06304,-0.68611 0.06304,-1.37222q0,-0.68611 -0.06304,-1.33611q-0.03152,-1.01111 -0.39355,-1.89635q-0.36294,-0.88421 -1.05638,-1.46198q-0.69345,-0.57778 -1.82818,-0.57778q-1.19777,0 -1.89122,0.59532q-0.69345,0.59635 -0.99244,1.57135q-0.29989,0.975 -0.36294,2.13056q-0.06304,1.11944 0,2.23889q0.06304,1.15556 0.36294,2.13056q0.299,0.975 0.99244,1.57032q0.69345,0.59635 1.89122,0.59635l-0.00001,-0.00002zm-12.07227,3.97222l-3.5618,0q-0.34672,0 -0.56737,-0.25278q-0.22064,-0.25278 -0.22064,-0.65l0,-4.08056q0,-0.36111 0.22064,-0.63246q0.22064,-0.27032 0.56737,-0.27032l3.5618,0q0.3152,0 0.55206,0.27032q0.23595,0.27135 0.23595,0.63246l0,4.08056q0,0.39722 -0.23595,0.65q-0.23685,0.25278 -0.55206,0.25278zm-29.84972,-8.08889l0,-0.61389l-2.93138,0.54167q-1.67057,0.325 -2.45858,0.975q-0.788,0.65 -0.788,1.58889q0,0.68611 0.36294,1.1731q0.36203,0.48802 0.94561,0.75833q0.58268,0.27135 1.2446,0.27135q1.04017,0 1.85969,-0.50556q0.81952,-0.50556 1.29234,-1.55278q0.4728,-1.04722 0.4728,-2.63611l-0.00001,0zm-42.42632,-3.17778l0,0.10833l6.14646,0l0,-0.10833q0,-1.26389 -0.36203,-2.22135q-0.36294,-0.95643 -1.05638,-1.4981q-0.69345,-0.54167 -1.67057,-0.54167q-0.97712,0 -1.65437,0.54167q-0.67814,0.54167 -1.04017,1.4981q-0.36294,0.95746 -0.36294,2.22135zm100.64431,0l0,0.10833l6.14646,0l0,-0.10833q0,-1.26389 -0.36203,-2.22135q-0.36294,-0.95643 -1.05638,-1.4981q-0.69345,-0.54167 -1.67057,-0.54167q-0.97712,0 -1.65437,0.54167q-0.67814,0.54167 -1.04017,1.4981q-0.36294,0.95746 -0.36294,2.22135z" id="svg_1"/>
  <polygon fill="#54D28F" points="0 26 26 52 52 26 26 0 26 26" id="svg_2"/>
  <polygon fill="#000" points="26 26 26 52 13 26" opacity="0.1" id="svg_3"/>
 </g>
</svg>