<svg width="300" height="52" xmlns="http://www.w3.org/2000/svg">
 <g>
  <title>background</title>
  <rect x="-1" y="-1" width="302" height="54" id="canvas_background" fill="none"/>
 </g>

 <g>
  <title>Layer 1</title>
  <g stroke="#000" id="svgGroup" stroke-linecap="round" fill-rule="evenodd" font-size="9pt" stroke-width="0.25mm" fill="none">
   <path stroke="null" fill="#2A2C2F" d="m86.90814,44.93749l-8.50148,1.75246q1.54572,-7.66702 2.98104,-14.95068a1947.27021,1931.75055 0 0 1 0.85935,-4.82109a2182.08114,2164.69004 0 0 1 0.29994,-1.66849q0.60725,-3.36801 1.13169,-6.65388a854.74787,847.93556 0 0 0 0.87591,-5.60331a778.8124,772.6053 0 0 0 0.11777,-0.77674q0.46924,-3.09419 0.74526,-5.61335q1.2697,0.05476 2.34619,0.13691q1.07649,0.08215 2.12537,0.13691q1.04888,0.05476 2.12537,0.08215q1.07649,0.02738 2.34619,0.02738q-0.93847,3.88827 -1.84935,7.77655q-0.91087,3.88827 -1.68373,7.83131l5.46523,-0.60241a257.86059,255.80546 0 0 0 1.06636,-5.69367a231.64863,229.8024 0 0 0 0.31374,-1.83643a89.23513,88.52393 0 0 1 1.12801,-5.60149a101.09487,100.28915 0 0 1 0.47292,-1.92862q1.2697,-0.21906 2.81542,-0.35597q1.54572,-0.13691 2.87063,-0.24644a428.61327,425.19724 0 0 0 0.93571,-0.0785q0.36527,-0.03103 0.69005,-0.05933a205.30418,203.66792 0 0 0 0.61001,-0.05385l0.91087,-0.08215a70.89807,70.33301 0 0 0 -0.84371,2.91986a89.16888,88.45821 0 0 0 -0.61921,2.47444a260.77079,258.69245 0 0 0 -1.18689,5.29481a288.01507,285.7196 0 0 0 -0.16561,0.78404q-0.66245,3.14895 -1.2697,6.38005q-0.60725,3.2311 -1.10409,6.13361q-1.2145,6.95508 -2.26338,14.23875l-8.61188,0.98576a166.84421,165.51447 0 0 0 1.19978,-6.01678a152.59964,151.38342 0 0 0 0.06993,-0.39065q0.55204,-2.62869 1.13169,-5.47644q0.57965,-2.84775 0.91087,-4.87403l-5.35483,0.49288q-0.33215,1.78806 -0.76642,4.06169a1258.59185,1248.56093 0 0 1 -0.14445,0.75757q-0.52444,2.73822 -0.96608,5.20262l-1.2145,5.91456zm199.83987,0l-14.29794,2.13581q0.71766,-7.66702 1.32491,-15.06021q0.27602,-3.06681 0.52444,-6.4622q0.24842,-3.39539 0.44164,-6.70864a292.67524,290.34263 0 0 0 0.2751,-5.63069a263.50892,261.40877 0 0 0 0.02852,-0.77674q0.11041,-3.09419 0.16561,-5.66812q1.32491,0 2.84303,-0.05476q1.51812,-0.05476 2.76022,-0.10953a60.14058,59.66126 0 0 0 0.88143,-0.04472q0.43243,-0.02556 0.81058,-0.05476a29.60335,29.36741 0 0 0 0.43335,-0.03742l0.88327,-0.08215q-0.60725,6.35267 -1.04888,10.43262q-0.39471,3.65005 -0.63577,6.07246a336.41551,333.73429 0 0 0 -0.05428,0.55403q-0.24842,2.54654 -0.44164,4.90141q-0.19322,2.35487 -0.41403,4.38115a684.14056,678.68799 0 0 1 -0.15825,1.43483q-0.12421,1.12541 -0.22818,2.01533l0.99368,0l6.18289,-29.13466q1.49052,-0.05476 3.03624,-0.16429a64.58269,64.06797 0 0 1 2.14745,-0.13326a74.14317,73.55225 0 0 1 0.75078,-0.03103q1.51812,-0.05476 2.78782,-0.21906q-0.77286,2.40963 -1.57332,5.31215a3980.84604,3949.11887 0 0 0 -1.23198,4.47699a4433.10519,4397.77353 0 0 0 -0.42415,1.54709q-0.85567,3.12157 -1.65613,6.35267a795.64421,789.30296 0 0 1 -1.38011,5.48648a717.80235,712.0815 0 0 1 -0.19322,0.75666q-1.76654,7.06461 -3.53308,14.51257zm-231.748,-3.17634l4.08512,-7.94084q0.38643,0.71194 1.15929,1.45126q0.77286,0.73932 1.73894,1.28696a13.35486,13.24842 0 0 0 1.56964,0.76305a11.94991,11.85467 0 0 0 0.36251,0.14056a6.58588,6.53339 0 0 0 0.74986,0.23001q0.52904,0.12596 0.98908,0.12596a4.41727,4.38207 0 0 0 0.93571,-0.10314a5.38703,5.34409 0 0 0 0.4444,-0.11592q0.71766,-0.21906 1.32491,-0.65717a3.82106,3.79061 0 0 0 0.68269,-0.62614a3.33895,3.31233 0 0 0 0.28338,-0.387q0.35883,-0.57503 0.35883,-1.34173a3.95171,3.92022 0 0 0 -0.75078,-2.29372a4.91963,4.88042 0 0 0 -0.10489,-0.1433a11.40155,11.31068 0 0 0 -1.23106,-1.3609a14.10196,13.98957 0 0 0 -0.89431,-0.77492a51.12478,50.71732 0 0 0 -1.85027,-1.40562a60.4166,59.93508 0 0 0 -0.90995,-0.64805a25.9019,25.69546 0 0 1 -2.37839,-1.86929a23.3855,23.19912 0 0 1 -0.35423,-0.32128q-1.2421,-1.15005 -2.12537,-2.57393q-0.88327,-1.42387 -0.88327,-3.17634q0,-2.84775 1.71134,-5.31215q1.71134,-2.4644 4.27834,-4.24424q2.567,-1.77984 5.60324,-2.82037a20.05391,19.89408 0 0 1 3.04268,-0.79682a15.44527,15.32217 0 0 1 2.69857,-0.2437q1.49052,0 2.81542,0.35597a6.30158,6.25136 0 0 1 1.57609,0.65078a5.58024,5.53577 0 0 1 0.7149,0.49927a5.77346,5.72744 0 0 1 1.43347,1.77619a6.72849,6.67487 0 0 1 0.11225,0.22271a5.48824,5.44449 0 0 1 0.40667,1.21577q0.17297,0.80777 0.17297,1.79627q0,0.7667 -0.13801,1.5334a29.88765,29.64945 0 0 0 -0.16193,1.00128a36.04386,35.75659 0 0 0 -0.08649,0.64166l-8.00464,2.30011q0.11041,-0.43812 0.19322,-0.87623q0.08281,-0.43812 0.08281,-0.87623a7.50964,7.44978 0 0 0 -0.04324,-0.83059q-0.11501,-1.01405 -0.5364,-1.55166a1.93951,1.92406 0 0 0 -0.61921,-0.52939q-0.39839,-0.20993 -0.89891,-0.20993a1.51444,1.50237 0 0 0 -0.34227,0.04199q-0.32203,0.07484 -0.72134,0.28021a4.97484,4.93519 0 0 0 -0.01288,0.00639q-0.63485,0.32859 -1.2697,0.84885q-0.63485,0.52026 -1.07649,1.2322q-0.44164,0.71194 -0.44164,1.5334a3.88087,3.84994 0 0 0 0.13801,1.04874a3.04544,3.02117 0 0 0 0.60725,1.14184a8.77842,8.70845 0 0 0 1.04152,1.02683a11.10988,11.02134 0 0 0 0.80782,0.6161a46.39836,46.02857 0 0 0 1.45556,0.96933a55.76011,55.3157 0 0 0 0.94584,0.59146a10.12356,10.04288 0 0 1 1.87327,1.48868a11.91771,11.82272 0 0 1 0.52812,0.56499a9.45559,9.38023 0 0 1 1.11421,1.59091a12.76509,12.66336 0 0 1 0.73514,1.55805a9.69389,9.61663 0 0 1 0.48212,1.70226q0.16469,0.85432 0.22634,1.84739a20.42102,20.25827 0 0 1 0.0368,1.24224a13.90782,13.79698 0 0 1 -0.41863,3.4392a11.92139,11.82637 0 0 1 -0.76826,2.11938q-1.18689,2.49178 -3.20185,4.29901a14.10196,13.98957 0 0 1 -4.24154,2.60131a16.21813,16.08887 0 0 1 -0.50604,0.19168q-2.73262,0.98576 -5.87927,0.98576q-2.20818,0 -4.41635,-1.17743q-1.91467,-1.02136 -3.70513,-3.09236a20.50935,20.34589 0 0 1 -0.5456,-0.659zm136.52044,0l4.08512,-7.94084q0.38643,0.71194 1.15929,1.45126q0.77286,0.73932 1.73894,1.28696a13.35486,13.24842 0 0 0 1.56964,0.76305a11.94991,11.85467 0 0 0 0.36251,0.14056a6.58588,6.53339 0 0 0 0.74986,0.23001q0.52904,0.12596 0.98908,0.12596a4.41727,4.38207 0 0 0 0.93571,-0.10314a5.38703,5.34409 0 0 0 0.4444,-0.11592q0.71766,-0.21906 1.32491,-0.65717a3.82106,3.79061 0 0 0 0.68269,-0.62614a3.33895,3.31233 0 0 0 0.28338,-0.387q0.35883,-0.57503 0.35883,-1.34173a3.95171,3.92022 0 0 0 -0.75078,-2.29372a4.91963,4.88042 0 0 0 -0.10489,-0.1433a11.40155,11.31068 0 0 0 -1.23106,-1.3609a14.10196,13.98957 0 0 0 -0.89431,-0.77492a51.12478,50.71732 0 0 0 -1.85027,-1.40562a60.4166,59.93508 0 0 0 -0.90995,-0.64805a25.9019,25.69546 0 0 1 -2.37839,-1.86929a23.3855,23.19912 0 0 1 -0.35423,-0.32128q-1.2421,-1.15005 -2.12537,-2.57393q-0.88327,-1.42387 -0.88327,-3.17634q0,-2.84775 1.71134,-5.31215q1.71134,-2.4644 4.27834,-4.24424q2.567,-1.77984 5.60324,-2.82037a20.05391,19.89408 0 0 1 3.04268,-0.79682a15.44527,15.32217 0 0 1 2.69857,-0.2437q1.49052,0 2.81542,0.35597a6.30158,6.25136 0 0 1 1.57609,0.65078a5.58024,5.53577 0 0 1 0.7149,0.49927a5.77346,5.72744 0 0 1 1.43347,1.77619a6.72849,6.67487 0 0 1 0.11225,0.22271a5.48824,5.44449 0 0 1 0.40667,1.21577q0.17297,0.80777 0.17297,1.79627q0,0.7667 -0.13801,1.5334a29.88765,29.64945 0 0 0 -0.16193,1.00128a36.04386,35.75659 0 0 0 -0.08649,0.64166l-8.00464,2.30011q0.11041,-0.43812 0.19322,-0.87623q0.08281,-0.43812 0.08281,-0.87623a7.50964,7.44978 0 0 0 -0.04324,-0.83059q-0.11501,-1.01405 -0.5364,-1.55166a1.93951,1.92406 0 0 0 -0.61921,-0.52939q-0.39839,-0.20993 -0.89891,-0.20993a1.51444,1.50237 0 0 0 -0.34227,0.04199q-0.32203,0.07484 -0.72134,0.28021a4.97484,4.93519 0 0 0 -0.01288,0.00639q-0.63485,0.32859 -1.2697,0.84885q-0.63485,0.52026 -1.07649,1.2322q-0.44164,0.71194 -0.44164,1.5334a3.88087,3.84994 0 0 0 0.13801,1.04874a3.04544,3.02117 0 0 0 0.60725,1.14184a8.77842,8.70845 0 0 0 1.04152,1.02683a11.10988,11.02134 0 0 0 0.80782,0.6161a46.39836,46.02857 0 0 0 1.45556,0.96933a55.76011,55.3157 0 0 0 0.94584,0.59146a10.12356,10.04288 0 0 1 1.87327,1.48868a11.91771,11.82272 0 0 1 0.52812,0.56499a9.45559,9.38023 0 0 1 1.11421,1.59091a12.76509,12.66336 0 0 1 0.73514,1.55805a9.69389,9.61663 0 0 1 0.48212,1.70226q0.16469,0.85432 0.22634,1.84739a20.42102,20.25827 0 0 1 0.0368,1.24224a13.90782,13.79698 0 0 1 -0.41863,3.4392a11.92139,11.82637 0 0 1 -0.76826,2.11938q-1.18689,2.49178 -3.20185,4.29901a14.10196,13.98957 0 0 1 -4.24154,2.60131a16.21813,16.08887 0 0 1 -0.50604,0.19168q-2.73262,0.98576 -5.87927,0.98576q-2.20818,0 -4.41635,-1.17743q-1.91467,-1.02136 -3.70513,-3.09236a20.50935,20.34589 0 0 1 -0.5456,-0.659zm-80.04636,2.57393l-8.94311,2.30011q1.49052,-7.28367 2.87063,-14.23875q0.49684,-2.95728 1.10409,-6.161q0.60725,-3.20372 1.13169,-6.35267a1034.04526,1025.80397 0 0 0 0.75538,-4.60021a926.01029,918.63002 0 0 0 0.2383,-1.47864q0.46924,-2.9299 0.74526,-5.33953a37.20039,36.90391 0 0 1 4.56172,-1.10989a43.82584,43.47655 0 0 1 2.22842,-0.34136q3.64349,-0.4655 7.23177,-0.4655a15.42686,15.30391 0 0 1 1.45096,0.06389q0.71766,0.06754 1.32675,0.20628a7.17565,7.11846 0 0 1 0.78298,0.22271q1.40771,0.49288 2.20818,1.39649q0.80046,0.90361 1.13169,2.10843a9.19797,9.12466 0 0 1 0.26774,1.44213a11.8993,11.80447 0 0 1 0.06349,1.24133q0,2.19058 -0.77286,4.29901q-0.77286,2.10843 -2.07016,3.9978q-1.2973,1.88937 -2.98104,3.45016a16.1482,16.0195 0 0 1 -3.25614,2.35669a15.05516,14.93517 0 0 1 -0.35975,0.18985q0.99368,2.19058 2.12537,4.79189q1.13169,2.60131 2.12537,4.95618q1.10409,2.73822 2.26338,5.47644l-8.55668,2.95728q-1.10409,-3.50492 -1.98736,-6.57173a158.71904,157.45406 0 0 1 -0.7241,-2.43428a173.0133,171.63439 0 0 1 -0.04876,-0.16703q-0.38643,-1.34173 -0.71766,-2.54654q-0.33123,-1.20482 -0.55204,-2.16319a19.94258,19.78364 0 0 1 -0.12145,-0.56407q-0.11685,-0.58233 -0.15457,-0.99671l-0.71766,0.21906a328.35935,325.74234 0 0 1 -0.26774,1.39923q-0.11961,0.61793 -0.25302,1.29518a586.97441,582.29625 0 0 1 -0.2797,1.41292q-0.46924,2.35487 -0.85567,4.54545q-0.49684,2.57393 -0.99368,5.20262zm33.61947,-0.43812l-17.83102,2.73822l7.23177,-38.93749l17.44459,-1.47864q-0.38643,1.20482 -0.66245,2.4644a53.75895,53.33049 0 0 0 -0.46188,1.8839a59.31987,58.84709 0 0 0 -0.06256,0.2793q-0.21346,0.96477 -0.36619,1.7479a48.1649,47.78103 0 0 0 -0.04784,0.251q-0.42231,0.04199 -1.12065,0.06754a43.89209,43.54227 0 0 1 -0.45268,0.0146q-1.02128,0.02738 -2.18057,0.05476q-1.15929,0.02738 -2.34619,0.02738l-2.07016,0l-1.93215,9.80283q1.71134,-0.10953 3.20185,-0.16429q1.2145,-0.05476 2.4842,-0.05476a47.65334,47.27355 0 0 0 0.59345,-0.00365q0.82807,-0.01004 1.2835,-0.05111q-0.22082,1.5334 -0.41403,3.01204q-0.19322,1.47864 -0.46924,3.01204q-0.55204,0.05476 -1.79414,0.08215q-1.2421,0.02738 -2.5118,0.08215q-1.43531,0.05476 -3.14665,0.10953l-1.87695,10.07665l8.05984,-1.25958l-0.55204,6.24314zm123.54741,0l-17.83102,2.73822l7.23177,-38.93749l17.44459,-1.47864q-0.38643,1.20482 -0.66245,2.4644a53.75895,53.33049 0 0 0 -0.46188,1.8839a59.31987,58.84709 0 0 0 -0.06256,0.2793q-0.21346,0.96477 -0.36619,1.7479a48.1649,47.78103 0 0 0 -0.04784,0.251q-0.42231,0.04199 -1.12065,0.06754a43.89209,43.54227 0 0 1 -0.45268,0.0146q-1.02128,0.02738 -2.18057,0.05476q-1.15929,0.02738 -2.34619,0.02738l-2.07016,0l-1.93215,9.80283q1.71134,-0.10953 3.20185,-0.16429q1.2145,-0.05476 2.4842,-0.05476a47.65334,47.27355 0 0 0 0.59345,-0.00365q0.82807,-0.01004 1.2835,-0.05111q-0.22082,1.5334 -0.41403,3.01204q-0.19322,1.47864 -0.46924,3.01204q-0.55204,0.05476 -1.79414,0.08215q-1.2421,0.02738 -2.5118,0.08215q-1.43531,0.05476 -3.14665,0.10953l-1.87695,10.07665l8.05984,-1.25958l-0.55204,6.24314zm-109.30468,0.71194l-9.43995,1.15005l2.5394,-11.00765q0,-2.35487 -0.08281,-5.12047q-0.08281,-2.7656 -0.24842,-5.55859q-0.16561,-2.79298 -0.33123,-5.39429a701.69003,696.09759 0 0 1 -0.13433,-2.16046q-0.0598,-0.98667 -0.10949,-1.86564a396.20554,393.0478 0 0 1 -0.0322,-0.57411q-0.09845,-1.78806 -0.19782,-2.94085a45.42309,45.06107 0 0 0 -0.023,-0.26287l-0.11041,-1.20482l8.99831,-3.39539l0,6.68126l0,2.79298q0,1.42387 -0.0276,2.79298q-0.0276,1.36911 -0.0276,2.57393l0,2.02628q0.49316,-1.27966 1.12985,-2.97462a683.56551,678.11753 0 0 0 0.60909,-1.62559q1.02128,-2.73822 1.90455,-5.31215q1.04888,-3.01204 2.15297,-6.35267l8.55668,1.91675q-2.37379,4.70974 -4.63717,9.36471q-0.93847,2.02628 -1.98736,4.18948l-2.09777,4.32639a1071.03956,1062.50342 0 0 1 -1.79322,3.68108a974.03166,966.26867 0 0 1 -0.24934,0.5084q-0.99368,2.02628 -1.82174,3.77874q-0.27602,1.42387 -0.69005,3.12157q-0.41403,1.6977 -0.80046,3.2311q-0.49684,1.80723 -1.04888,3.61445zm22.79941,-7.39319l-4.80278,0l-2.20818,7.88607a112.98773,112.08722 0 0 1 -0.97344,0.12687q-0.43059,0.05476 -0.90535,0.11227a206.02736,204.38533 0 0 1 -0.99184,0.11683q-1.65613,0.19168 -3.09145,0.35597q-1.76654,0.21906 -3.47788,0.43812q2.20818,-7.28367 4.36115,-14.34827q0.88327,-2.95728 1.84935,-6.18838q0.96608,-3.2311 1.93215,-6.43482q0.96608,-3.20372 1.84935,-6.161q0.88327,-2.95728 1.54572,-5.42168q3.7539,-0.27382 7.64581,-0.65717q3.89191,-0.38335 7.5906,-1.04052q-0.16377,1.73147 -0.35423,4.2917a398.39347,395.21829 0 0 0 -0.0046,0.06207q-0.19322,2.60131 -0.35883,5.66812q-0.16561,3.06681 -0.33123,6.40744q-0.16561,3.34063 -0.33123,6.57173q-0.27602,7.55749 -0.60725,16.04597q-1.65613,0.27382 -3.31226,0.43812q-1.38011,0.21906 -3.03624,0.49288l-2.98104,0.49288q0.22082,-1.80723 0.44164,-3.55969q0.16561,-1.5334 0.30362,-3.06681a346.41947,343.65852 0 0 1 0.09937,-1.08799q0.04048,-0.42808 0.07729,-0.81325a178.95329,177.52704 0 0 1 0.07177,-0.72745zm71.67093,-14.96894a22.56939,22.38951 0 0 0 0.31559,-3.65096a19.71441,19.55728 0 0 0 -0.02116,-0.91457a17.21457,17.07737 0 0 0 -0.58609,-3.74041a12.47987,12.38041 0 0 0 -0.20794,-0.67543a10.62132,10.53667 0 0 0 -1.69661,-3.15808a8.34966,8.28312 0 0 0 -0.98356,-1.04509a9.20441,9.13105 0 0 0 -2.38391,-1.52884q-1.2375,-0.55677 -2.79978,-0.78039a15.76913,15.64345 0 0 0 -2.25142,-0.1506q-2.5394,0 -4.96839,0.38335q-2.42899,0.38335 -4.80278,0.82147a101.32673,100.51916 0 0 1 -0.00276,0.01825q-0.16561,1.17378 -0.37815,2.48357a164.04074,162.73335 0 0 1 -0.47476,2.75556q-0.52444,2.90251 -1.07649,6.07885q-0.55204,3.17634 -1.15929,6.43482a2375.84392,2356.90855 0 0 0 -0.29994,1.61372a2112.65702,2095.81924 0 0 0 -0.85935,4.6568q-1.43531,7.17414 -2.92583,14.73163q0.77286,0.10953 1.54572,0.19168q0.77286,0.08215 1.54572,0.08215q3.69869,0 6.98335,-1.31435q3.28466,-1.31435 6.04488,-3.47754q2.76022,-2.16319 4.94079,-5.03833q2.18057,-2.87513 3.67109,-6.02408q1.49052,-3.14895 2.31858,-6.35267a28.38333,28.15712 0 0 0 0.51248,-2.40051zm-13.6548,-3.23019a191.34943,189.82439 0 0 0 0.94215,-4.6924q1.32859,0 2.2689,0.3441a3.43187,3.40452 0 0 1 1.29178,0.80595a3.63061,3.60167 0 0 1 0.27142,0.30942q0.52076,0.6663 0.72686,1.57721a5.95195,5.90452 0 0 1 0.13341,1.2897q0,0.82147 -0.13985,1.83552a22.6476,22.4671 0 0 1 -0.21898,1.28605q-0.35883,1.80723 -1.02128,3.88827q-0.66245,2.08105 -1.57332,4.27162q-0.91087,2.19058 -2.01496,4.16209q-1.10409,1.97152 -2.34619,3.47754a14.11852,14.006 0 0 1 -1.18505,1.27601a10.2809,10.19896 0 0 1 -1.38195,1.10624q0.60725,-3.88827 1.2697,-7.17414a409.00467,405.74493 0 0 1 0.33123,-1.62559a361.31545,358.43578 0 0 1 0.99368,-4.67232q0.66245,-3.01204 1.32491,-5.96932a169.16831,167.82005 0 0 0 0.32755,-1.49598zm-58.07133,-1.02318l-3.42267,13.74587a6.01728,5.96932 0 0 0 0.12789,-0.00183q0.17849,-0.00365 0.47844,-0.01643a54.05705,53.62622 0 0 0 0.19414,-0.00913q0.57965,-0.02738 1.2145,-0.05476q0.63485,-0.02738 1.18689,-0.05476q0.54284,-0.02738 0.7655,-0.08032a0.99644,0.9885 0 0 0 0.00736,-0.00183q0,-0.32859 0.08281,-1.12267q0.08281,-0.79408 0.16561,-1.80723q0.08281,-1.01314 0.19322,-2.21796q0.11041,-1.20482 0.22082,-2.35487q0.22082,-2.79298 0.55204,-6.02408l0.33123,-4.7645l-0.82807,0.05476l-1.2697,4.70974zm43.57742,25.89626a4.96011,4.92058 0 0 0 0.31006,-1.69039a4.30962,4.27527 0 0 0 -0.59437,-2.18327a5.62073,5.57593 0 0 0 -1.00656,-1.2395a4.7669,4.72891 0 0 0 -1.2835,-0.85432q-0.75814,-0.34958 -1.71686,-0.51205a10.75013,10.66446 0 0 0 -1.80242,-0.13965a8.13529,8.07045 0 0 0 -0.12605,0.00091q-0.60725,0.00913 -1.13813,0.10953a4.72181,4.68418 0 0 0 -1.19241,0.38244a6.58312,6.53066 0 0 0 -0.5042,0.27017a5.44775,5.40433 0 0 0 -1.20714,0.96203q-0.69005,0.73932 -1.02128,1.6977q-0.33123,0.95838 -0.33123,1.9989q0,0.93099 0.33123,1.86199a6.29698,6.24679 0 0 0 0.00276,0.0073a5.93815,5.89082 0 0 0 0.90811,1.66301a3.81278,3.7824 0 0 0 0.50788,0.53121a4.34643,4.31178 0 0 0 1.01024,0.64622a4.46327,4.4277 0 0 0 0.81518,0.28751a5.2481,5.20627 0 0 0 1.28258,0.1506a10.73817,10.65259 0 0 0 1.4712,-0.09584a7.93747,7.87421 0 0 0 1.56504,-0.36966a7.62097,7.56023 0 0 0 0.94952,-0.40434a5.86363,5.81689 0 0 0 1.25866,-0.85524q0.88327,-0.79408 1.35251,-1.83461a5.89307,5.8461 0 0 0 0.15917,-0.38974l0,-0.00091zm-108.38737,-29.72977l-1.76654,8.70754a4.74942,4.71156 0 0 0 0.77654,-0.15334q0.78206,-0.21632 1.75918,-0.70737a15.30542,15.18343 0 0 0 0.03128,-0.01552q1.51812,-0.7667 2.89823,-1.83461a17.80617,17.66426 0 0 0 1.50248,-1.297a14.51047,14.39482 0 0 0 0.87131,-0.92095a6.41107,6.35997 0 0 0 0.46924,-0.6088q0.45544,-0.67908 0.51524,-1.24863a1.64877,1.63563 0 0 0 0.0092,-0.16886a1.54572,1.5334 0 0 0 -0.05428,-0.41712a1.15929,1.15005 0 0 0 -0.33215,-0.54125q-0.32755,-0.30212 -0.87407,-0.48558a3.93331,3.90196 0 0 0 -0.20242,-0.06207a6.87019,6.81543 0 0 0 -0.90443,-0.18437a8.5852,8.51678 0 0 0 -0.61369,-0.06207a25.43818,25.23544 0 0 0 -1.49144,-0.05385a27.9325,27.70988 0 0 0 -0.2199,-0.00091q-0.60725,0 -1.2421,0.02738q-0.5456,0.02373 -0.98908,0.02647a18.95535,18.80427 0 0 1 -0.14261,0.00091z" id="svg_1"/>
  </g>
  <polygon fill="#54D28F" points="0 26 26 52 52 26 26 0 26 26" id="svg_2"/>
  <polygon fill="#000" points="26 26 26 52 13 26" opacity="0.1" id="svg_3"/>
 </g>
</svg>